<svg width="89" height="87" viewBox="0 0 89 87" fill="none" xmlns="http://www.w3.org/2000/svg">
<g filter="url(#filter0_f_6_579)">
<g filter="url(#filter1_df_6_579)">
<path d="M43.5 76.2158C61.5685 76.2158 76.2158 61.5685 76.2158 43.5C76.2158 25.4316 61.5685 10.7842 43.5 10.7842C25.4316 10.7842 10.7842 25.4316 10.7842 43.5C10.7842 61.5685 25.4316 76.2158 43.5 76.2158Z" fill="#FA9E42"/>
</g>
<path d="M43.5 84.4712C66.1278 84.4712 84.4713 66.1278 84.4713 43.5C84.4713 20.8722 66.1278 2.52878 43.5 2.52878C20.8722 2.52878 2.52881 20.8722 2.52881 43.5C2.52881 66.1278 20.8722 84.4712 43.5 84.4712Z" stroke="#FA9E42" stroke-width="3.05755" stroke-linecap="round" stroke-dasharray="0.31 20.18"/>
<g filter="url(#filter2_f_6_579)">
<path d="M40.0052 37.0178C51.4498 30.9391 57.9237 20.7328 54.4652 14.2213C51.0066 7.70977 38.9253 7.35892 27.4807 13.4376C16.0362 19.5163 9.56225 29.7227 13.0208 36.2342C16.4793 42.7457 28.5607 43.0966 40.0052 37.0178Z" fill="#F8E36F"/>
</g>
</g>
<defs>
<filter id="filter0_f_6_579" x="0.388489" y="0.388489" width="86.223" height="86.223" filterUnits="userSpaceOnUse" color-interpolation-filters="sRGB">
<feFlood flood-opacity="0" result="BackgroundImageFix"/>
<feBlend mode="normal" in="SourceGraphic" in2="BackgroundImageFix" result="shape"/>
<feGaussianBlur stdDeviation="0.305755" result="effect1_foregroundBlur_6_579"/>
</filter>
<filter id="filter1_df_6_579" x="4.66907" y="2.22303" width="83.777" height="83.777" filterUnits="userSpaceOnUse" color-interpolation-filters="sRGB">
<feFlood flood-opacity="0" result="BackgroundImageFix"/>
<feColorMatrix in="SourceAlpha" type="matrix" values="0 0 0 0 0 0 0 0 0 0 0 0 0 0 0 0 0 0 127 0" result="hardAlpha"/>
<feOffset dx="3.05755" dy="0.611511"/>
<feGaussianBlur stdDeviation="4.58633"/>
<feColorMatrix type="matrix" values="0 0 0 0 0 0 0 0 0 0 0 0 0 0 0 0 0 0 0.25 0"/>
<feBlend mode="normal" in2="BackgroundImageFix" result="effect1_dropShadow_6_579"/>
<feBlend mode="normal" in="SourceGraphic" in2="effect1_dropShadow_6_579" result="shape"/>
<feGaussianBlur stdDeviation="0.611511" result="effect2_foregroundBlur_6_579"/>
</filter>
<filter id="filter2_f_6_579" x="5.97449" y="2.98343" width="55.5371" height="44.4886" filterUnits="userSpaceOnUse" color-interpolation-filters="sRGB">
<feFlood flood-opacity="0" result="BackgroundImageFix"/>
<feBlend mode="normal" in="SourceGraphic" in2="BackgroundImageFix" result="shape"/>
<feGaussianBlur stdDeviation="3.05755" result="effect1_foregroundBlur_6_579"/>
</filter>
</defs>
</svg>
