<svg width="15" height="18" viewBox="0 0 15 18" fill="none" xmlns="http://www.w3.org/2000/svg">
<path d="M7.52105 4.37762e-05L7.74606 0.00417998C11.7813 0.13732 15.005 3.46738 14.9913 7.54212L14.9911 7.63236C14.9452 10.063 13.729 12.4562 11.7113 14.5921C10.7159 15.629 9.6043 16.5469 8.39869 17.3276L8.40748 17.3211L8.36498 17.3571C7.88304 17.7034 7.24439 17.7282 6.74006 17.4313L6.6262 17.3571L6.57299 17.3154L6.2084 17.0699C4.69414 16.026 3.34553 14.7595 2.21071 13.3166L1.93148 12.9522C0.742575 11.394 0.0675568 9.50283 0 7.51885L0.004081 7.26761C0.13677 3.21996 3.45662 -0.0137202 7.52105 4.37762e-05ZM7.51652 1.33821L7.30469 1.34107C3.99943 1.44184 1.34533 4.15547 1.33401 7.49558L1.35084 7.81041C1.4654 9.38053 2.03457 10.8857 2.99505 12.1445C4.18748 13.7418 5.65082 15.1162 7.31811 16.2048L7.39061 16.2595C7.45088 16.3118 7.54029 16.3118 7.60057 16.2595L7.67516 16.2034C8.79438 15.4786 9.8263 14.6265 10.7467 13.6678C12.5516 11.7571 13.6186 9.65747 13.6572 7.61969L13.6544 7.32736C13.5539 4.01191 10.8486 1.3496 7.51652 1.33821ZM7.49559 4.76308C9.07267 4.76308 10.3511 6.0455 10.3511 7.62745C10.3511 9.2094 9.07267 10.4918 7.49559 10.4918C5.91851 10.4918 4.64003 9.2094 4.64003 7.62745C4.64003 6.0455 5.91851 4.76308 7.49559 4.76308ZM7.49559 6.10121C6.65526 6.10121 5.97404 6.78453 5.97404 7.62745C5.97404 8.47037 6.65526 9.15369 7.49559 9.15369C8.33591 9.15369 9.01713 8.47037 9.01713 7.62745C9.01713 6.78453 8.33591 6.10121 7.49559 6.10121Z" fill="white"/>
</svg>
