<svg width="56" height="28" viewBox="0 0 56 28" fill="none" xmlns="http://www.w3.org/2000/svg">
<path d="M27.8399 47.22C39.6463 47.22 49.2172 38.0561 49.2172 26.752C49.2172 15.4478 39.6463 6.28397 27.8399 6.28397C16.0336 6.28397 6.46265 15.4478 6.46265 26.752C6.46265 38.0561 16.0336 47.22 27.8399 47.22Z" fill="#FA9E42"/>
<path d="M27.8399 52.3848C42.6255 52.3848 54.6115 40.9086 54.6115 26.752C54.6115 12.5953 42.6255 1.11913 27.8399 1.11913C13.0544 1.11913 1.06836 12.5953 1.06836 26.752C1.06836 40.9086 13.0544 52.3848 27.8399 52.3848Z" stroke="#FA9E42" stroke-width="1.99788" stroke-linecap="round" stroke-dasharray="0.2 13.19"/>
<g filter="url(#filter0_f_6_460)">
<path d="M25.5565 22.6967C33.0346 18.8937 37.2648 12.5083 35.0049 8.43452C32.745 4.36073 24.8508 4.14122 17.3726 7.94424C9.89451 11.7473 5.66428 18.1327 7.92418 22.2065C10.1841 26.2803 18.0783 26.4998 25.5565 22.6967Z" fill="#F8E36F"/>
</g>
<defs>
<filter id="filter0_f_6_460" x="3.31992" y="1.23383" width="36.2892" height="28.1733" filterUnits="userSpaceOnUse" color-interpolation-filters="sRGB">
<feFlood flood-opacity="0" result="BackgroundImageFix"/>
<feBlend mode="normal" in="SourceGraphic" in2="BackgroundImageFix" result="shape"/>
<feGaussianBlur stdDeviation="1.99788" result="effect1_foregroundBlur_6_460"/>
</filter>
</defs>
</svg>
